<svg width="64" height="64" viewBox="0 0 64 64" fill="none" xmlns="http://www.w3.org/2000/svg">
<g clip-path="url(#clip0_19_498)">
<path d="M32 24.38C30.4931 24.3806 29.0201 24.828 27.7674 25.6656C26.5146 26.5033 25.5384 27.6935 24.9621 29.086C24.3858 30.4784 24.2353 32.0104 24.5297 33.4884C24.824 34.9663 25.55 36.3238 26.6157 37.3892C27.6815 38.4546 29.0393 39.18 30.5173 39.4738C31.9954 39.7676 33.5274 39.6165 34.9196 39.0397C36.3118 38.4629 37.5017 37.4862 38.3389 36.2332C39.1761 34.9801 39.6229 33.507 39.6229 32C39.6214 29.979 38.8177 28.0413 37.3884 26.6125C35.959 25.1837 34.021 24.3808 32 24.38ZM49.8158 18.5229C49.4278 17.5398 48.842 16.6469 48.0947 15.8996C47.3474 15.1523 46.4545 14.5665 45.4715 14.1786C42.4715 12.9943 35.3286 13.26 32 13.26C28.6715 13.26 21.5357 12.9843 18.5272 14.1786C17.5441 14.5665 16.6512 15.1523 15.9039 15.8996C15.1566 16.6469 14.5708 17.5398 14.1829 18.5229C13 21.5229 13.2643 28.6729 13.2643 31.9986C13.2643 35.3243 13 42.4657 14.1886 45.4757C14.5765 46.4588 15.1623 47.3517 15.9096 48.099C16.6569 48.8463 17.5498 49.4321 18.5329 49.82C21.5329 51.0043 28.6757 50.7386 32.0057 50.7386C35.3358 50.7386 42.4686 51.0143 45.4772 49.82C46.4603 49.4321 47.3531 48.8463 48.1005 48.099C48.8478 47.3517 49.4335 46.4588 49.8215 45.4757C51.0143 42.4757 50.74 35.3257 50.74 32C50.74 28.6743 51.0143 21.5343 49.8215 18.5243L49.8158 18.5229ZM32 43.7143C29.6832 43.7143 27.4183 43.0273 25.4919 41.7401C23.5655 40.4529 22.0641 38.6234 21.1774 36.4829C20.2908 34.3424 20.0588 31.987 20.5108 29.7147C20.9628 27.4423 22.0785 25.355 23.7168 23.7168C25.3551 22.0785 27.4423 20.9628 29.7147 20.5108C31.987 20.0588 34.3424 20.2908 36.4829 21.1774C38.6234 22.0641 40.4529 23.5655 41.7401 25.4919C43.0273 27.4183 43.7143 29.6832 43.7143 32C43.7162 33.5389 43.4145 35.063 42.8265 36.4851C42.2384 37.9072 41.3756 39.1993 40.2875 40.2875C39.1993 41.3756 37.9072 42.2384 36.4851 42.8264C35.063 43.4145 33.5389 43.7162 32 43.7143ZM44.1972 22.5286C43.6563 22.5289 43.1275 22.3688 42.6777 22.0685C42.2279 21.7682 41.8772 21.3413 41.67 20.8417C41.4628 20.3421 41.4085 19.7922 41.5138 19.2617C41.6192 18.7313 41.8795 18.2439 42.2618 17.8614C42.6441 17.4788 43.1314 17.2183 43.6618 17.1127C44.1922 17.007 44.7421 17.0611 45.2418 17.268C45.7415 17.4749 46.1686 17.8254 46.4691 18.2751C46.7696 18.7248 46.93 19.2535 46.93 19.7943C46.9315 20.1535 46.8621 20.5094 46.7258 20.8417C46.5894 21.1739 46.3888 21.476 46.1354 21.7306C45.882 21.9851 45.5809 22.1872 45.2493 22.3251C44.9177 22.463 44.5621 22.5341 44.2029 22.5343L44.1972 22.5286ZM32.0057 5.24828e-07C14.331 -0.00316627 -4.21398e-06 14.3253 0 32C4.21398e-06 49.6747 14.331 64.0032 32.0057 64C49.6777 63.9969 64.0008 49.6705 64 31.9986C63.9992 14.3274 49.6769 0.00316668 32.0057 5.24828e-07ZM54.6972 41.4286C54.5129 45.09 53.6772 48.3343 51.0043 51C48.3315 53.6657 45.09 54.5186 41.4329 54.6929C37.66 54.9057 26.3486 54.9057 22.5757 54.6929C18.9143 54.5086 15.6815 53.6715 13.0043 51C10.3272 48.3286 9.48574 45.0829 9.31146 41.4286C9.0986 37.6543 9.0986 26.3414 9.31146 22.5714C9.49574 18.91 10.3215 15.6657 13.0043 13C15.6872 10.3343 18.9286 9.49145 22.5757 9.31716C26.3486 9.1043 37.66 9.1043 41.4329 9.31716C45.0943 9.50145 48.3372 10.3386 51.0043 13.01C53.6715 15.6814 54.5229 18.9272 54.6972 22.5886C54.91 26.3486 54.91 37.6515 54.6972 41.4286Z" fill="#303030"/>
</g>
<defs>
<clipPath id="clip0_19_498">
<rect width="64" height="64" fill="white"/>
</clipPath>
</defs>
</svg>
