<svg width="72" height="52" viewBox="0 0 72 52" fill="none" xmlns="http://www.w3.org/2000/svg">
<path d="M43.1725 14.2363C33.358 14.2363 25.371 21.9845 25.371 31.5085C25.371 41.0318 33.3566 48.7813 43.1725 48.7813C52.9877 48.7813 60.974 41.0318 60.974 31.5085C60.974 21.9845 52.9877 14.2363 43.1725 14.2363ZM43.1725 47.4197C34.1305 47.4197 26.7729 40.2816 26.7729 31.5078C26.7729 22.7333 34.1298 15.5952 43.1725 15.5952C52.2152 15.5952 59.572 22.7333 59.572 31.5085C59.572 40.2816 52.2159 47.4197 43.1725 47.4197Z" fill="#B89C50"/>
<path d="M43.1724 17.2214C35.0529 17.2214 28.4482 23.6304 28.4482 31.5078C28.4482 39.3851 35.0536 45.7948 43.1724 45.7948C51.2927 45.7948 57.898 39.3851 57.898 31.5078C57.898 23.6304 51.2927 17.2214 43.1724 17.2214ZM43.1724 44.4345C35.8268 44.4345 29.8502 38.6356 29.8502 31.5078C29.8502 24.3799 35.8268 18.581 43.1724 18.581C50.5181 18.581 56.4961 24.3792 56.4961 31.5084C56.4961 38.6356 50.5195 44.4345 43.1724 44.4345Z" fill="#B89C50"/>
<path d="M70.3483 17.2215H68.0238C67.8422 15.6769 67.0403 14.1751 65.6867 12.8264L65.8676 11.0104C65.9005 10.6792 65.6811 10.3732 65.3516 10.2875L60.8492 9.11966C60.784 9.07681 60.7174 9.03804 60.6375 9.01764C60.5576 8.99723 60.477 8.99723 60.3992 9.00336L58.0088 8.38375L58.0074 8.38307L55.561 7.74782C55.2238 7.6594 54.8817 7.82127 54.7408 8.12394L54.4492 8.74966L53.2057 5.97197C52.5565 4.52124 51.0719 3.30583 49.4512 2.75559C49.4512 2.74879 49.4554 2.74267 49.4554 2.73655C49.4554 0.9403 47.3412 0.0302734 43.1753 0.0302734C39.0135 0.0302734 36.9021 0.93826 36.8951 2.72839C35.2716 3.27114 33.7799 4.47635 33.1189 5.9196L31.3658 9.74675L19.048 10.3276C18.4494 10.3412 17.7 10.3806 16.9177 10.4405C16.0394 9.91678 14.6248 9.66989 13.2733 9.66989C11.0982 9.66989 8.75757 10.3085 8.75757 11.711C8.75757 11.7736 8.76738 11.8327 8.7765 11.8933L6.26977 12.8387L5.24283 13.227C5.08791 13.2862 4.95963 13.3957 4.88042 13.5378C4.39464 14.4125 3.98526 15.3259 3.63898 16.2604L1.96572 15.449C1.61874 15.2804 1.19814 15.4178 1.025 15.7531C0.851857 16.089 0.992055 16.4978 1.33834 16.6658L3.20436 17.5711C2.67442 19.3748 2.39122 21.2506 2.39122 23.1394V49.592C2.39122 50.9034 3.49037 51.9698 4.84117 51.9698H17.6888C17.7779 51.9698 17.8669 51.9542 17.9503 51.9208L19.0263 51.5026H62.3851C64.317 51.5026 66.2131 50.6238 67.8668 48.9616C67.9929 48.8337 68.063 48.6637 68.063 48.4889V18.5824H70.3483C70.7359 18.5824 71.0492 18.2777 71.0492 17.9023C71.0492 17.5255 70.7359 17.2215 70.3483 17.2215ZM43.1724 50.1409C32.5841 50.1409 23.9683 41.782 23.9683 31.5078C23.9683 21.2336 32.5834 12.8747 43.1724 12.8747C53.7615 12.8747 62.3773 21.2329 62.3773 31.5085C62.3773 41.782 53.7622 50.1409 43.1724 50.1409ZM57.8847 45.4881V46.2213C57.8847 47.2027 56.7491 48.0332 55.4046 48.0332H54.7562C55.8841 47.2871 56.9307 46.4328 57.8847 45.4881ZM28.4616 45.4881C29.4149 46.4321 30.4622 47.2871 31.5908 48.0332H30.9424C29.5979 48.0332 28.4616 47.2027 28.4616 46.2213V45.4881ZM23.4895 24.2514C23.4895 23.6896 23.9143 23.2244 24.4681 23.136C24.1898 23.7182 23.9402 24.316 23.7194 24.9281C23.5736 24.7377 23.4895 24.5024 23.4895 24.2514ZM33.086 9.33526C35.1055 10.4534 40.5157 10.5962 43.1346 10.5962C45.7542 10.5962 51.163 10.4527 53.1839 9.33526L56.1715 16.0081C52.6224 13.2012 48.0983 11.5151 43.1746 11.5151C38.1415 11.5151 33.5269 13.2774 29.9442 16.1958L33.086 9.33526ZM34.1949 6.91397H52.0988L52.6231 8.08585C52.6147 8.10693 52.6007 8.1253 52.5937 8.14706C52.0252 8.54834 48.8441 9.23664 43.1346 9.23664C37.4251 9.23664 34.2433 8.54834 33.6755 8.14638C33.6706 8.12938 33.6587 8.11577 33.6524 8.09945L34.1949 6.91397ZM59.5853 10.2004L59.3855 10.922L58.1245 10.5949L58.3222 9.87325L59.5853 10.2004ZM62.2007 10.8792L62.0023 11.6008L60.7398 11.2737L60.9389 10.552L62.2007 10.8792ZM55.6135 11.3505L57.0842 11.7328L64.5981 13.682C65.7554 14.8036 66.4241 15.9918 66.6064 17.2215H58.2422L55.6135 11.3505ZM64.3394 12.2068L63.3566 11.9518L63.555 11.2301L64.4151 11.4525L64.3394 12.2068ZM55.772 9.2108L56.9685 9.52094L56.7702 10.2426L55.4495 9.89978L55.772 9.2108ZM43.1724 1.38919C45.7899 1.38919 47.588 1.80204 47.9721 2.46177C47.8691 2.45497 47.7646 2.43593 47.6623 2.43525L38.6875 2.41484C38.684 2.41484 38.6805 2.41484 38.6763 2.41484C38.5803 2.41484 38.4829 2.43321 38.3847 2.43933C38.7976 1.79252 40.5858 1.38919 43.1724 1.38919ZM38.6763 3.77512C38.6791 3.77512 38.6819 3.77512 38.6847 3.77512L47.6595 3.79553C48.9318 3.79893 50.3765 4.54164 51.2758 5.55369H35.0186C35.9229 4.5294 37.3893 3.77512 38.6763 3.77512ZM19.095 11.6865L20.9463 11.5988C20.4416 12.9658 17.4161 14.339 13.225 14.339C11.387 14.339 9.62119 14.0561 8.21711 13.5617L9.37163 13.1243C9.47258 13.0862 9.58544 13.0529 9.69269 13.0162C10.5745 13.5134 11.9513 13.7501 13.2698 13.7501C15.4267 13.7501 17.7442 13.1209 17.7828 11.7436C18.258 11.7158 18.7074 11.6953 19.095 11.6865ZM13.2705 11.0295C14.8884 11.0295 15.8922 11.39 16.2518 11.6362C16.2525 11.6375 16.2539 11.6382 16.2553 11.6389C16.2911 11.6641 16.3275 11.6885 16.3499 11.7096C16.1032 11.9497 15.0573 12.3898 13.2705 12.3898C11.4837 12.3898 10.4378 11.9497 10.1911 11.7096C10.4378 11.4709 11.4837 11.0295 13.2705 11.0295ZM19.592 50.1409V27.4481C19.592 24.7935 21.2022 22.3661 23.6942 21.2656C24.0461 21.1098 24.2024 20.7065 24.0419 20.3644C23.8813 20.0223 23.4642 19.8713 23.1131 20.0277C20.1226 21.3486 18.1907 24.2616 18.1907 27.4481V50.3606L17.5542 50.6089H4.84117C4.26355 50.6089 3.79319 50.1518 3.79319 49.5914V23.1394C3.79319 20.0964 4.55376 17.0821 5.99499 14.403L6.39315 14.252C8.11757 15.1715 10.5745 15.6993 13.2257 15.6993C18.1606 15.6993 22.063 13.8929 22.3987 11.5301L30.7258 11.1376L27.1367 18.9735C26.4 19.8591 25.7396 20.8058 25.1648 21.8056C24.9994 21.7737 24.8298 21.7573 24.658 21.7573C23.2406 21.7573 22.0875 22.8762 22.0875 24.2514C22.0875 25.1186 22.5453 25.8933 23.2687 26.3435C22.8137 27.9922 22.5677 29.7231 22.5677 31.5085C22.5677 36.2083 24.2515 40.5312 27.0596 43.9476V46.222C27.0596 47.9713 28.8015 49.3955 30.9424 49.3955H33.9818C34.5461 49.6689 35.1244 49.9185 35.7168 50.1423L19.592 50.1409ZM66.6618 48.2073C65.3138 49.4907 63.8761 50.1409 62.3837 50.1409H50.6295C51.2219 49.9172 51.8009 49.6689 52.3652 49.3934H55.4046C57.5462 49.3934 59.2867 47.9706 59.2867 46.2213V43.9482C62.0956 40.5305 63.7793 36.2076 63.7793 31.5078C63.7793 26.5822 61.9301 22.0695 58.8745 18.5811H66.6618V48.2073Z" fill="#B89C50"/>
<path d="M17.9755 16.7168H7.84203C7.49924 16.7168 7.20693 16.9576 7.15085 17.2847L6.78915 19.3918C6.7555 19.589 6.81228 19.791 6.94546 19.9441C7.07865 20.0964 7.27423 20.1848 7.48032 20.1848H18.3372C18.5433 20.1848 18.7388 20.0964 18.872 19.9441C19.0052 19.791 19.062 19.5897 19.0283 19.3918L18.6666 17.2847C18.6106 16.9569 18.3183 16.7168 17.9755 16.7168ZM13.6097 18.0771H14.7411V18.8239H13.6097V18.0771ZM12.2078 18.8232H11.0764V18.0764H12.2078V18.8232ZM8.43576 18.0771H9.6744V18.8239H8.30748L8.43576 18.0771ZM16.1431 18.8232V18.0764H17.3817L17.51 18.8232H16.1431Z" fill="#B89C50"/>
<path d="M27.9808 15.5307C27.9808 14.1555 26.8276 13.0366 25.4102 13.0366C23.9928 13.0366 22.8397 14.1555 22.8397 15.5307C22.8397 16.9059 23.9928 18.0254 25.4102 18.0254C26.8276 18.0254 27.9808 16.9066 27.9808 15.5307ZM24.241 15.5307C24.241 14.9056 24.7653 14.3969 25.4095 14.3969C26.0537 14.3969 26.5781 14.9056 26.5781 15.5307C26.5781 16.1564 26.0537 16.6652 25.4095 16.6652C24.7653 16.6652 24.241 16.1564 24.241 15.5307Z" fill="#B89C50"/>
<path d="M43.1725 24.4581C39.1664 24.4581 35.9075 27.6201 35.9075 31.5085C35.9075 35.3955 39.1664 38.5567 43.1725 38.5567C47.1793 38.5567 50.4382 35.3955 50.4382 31.5085C50.4382 27.6215 47.1793 24.4581 43.1725 24.4581ZM43.1725 37.1971C39.9402 37.1971 37.3094 34.6453 37.3094 31.5085C37.3094 28.3723 39.9402 25.8191 43.1725 25.8191C46.4054 25.8191 49.0362 28.3717 49.0362 31.5085C49.0369 34.6453 46.4068 37.1971 43.1725 37.1971Z" fill="#B89C50"/>
</svg>
