<svg width="167" height="77" viewBox="0 0 167 77" fill="none" xmlns="http://www.w3.org/2000/svg">
<g clip-path="url(#clip0_29_773)">
<g clip-path="url(#clip1_29_773)">
<g clip-path="url(#clip2_29_773)">
<g clip-path="url(#clip3_29_773)">
<g clip-path="url(#clip4_29_773)">
<g clip-path="url(#clip5_29_773)">
<g clip-path="url(#clip6_29_773)">
<g clip-path="url(#clip7_29_773)">
<path d="M29.3491 59.3139L28.0478 60.2479L28.82 60.4151C29.6496 60.5953 30.2769 60.7049 30.7017 60.7448C30.3075 60.1728 29.8567 59.6958 29.3491 59.3139ZM26.9935 59.8622L28.524 58.8132C28.0823 58.5816 27.702 58.4306 27.3823 58.3616C27.0579 58.291 26.7619 58.3156 26.4951 58.4359C26.2244 58.5502 26.0695 58.699 26.0289 58.8838C25.9507 59.2434 26.2727 59.5693 26.9935 59.8622ZM30.0461 47.091C29.2578 47.1086 28.5263 47.3341 27.8515 47.7681C27.176 48.2075 26.8103 48.5541 26.7543 48.8094C26.6983 49.0694 26.7474 49.2158 26.9023 49.2496C27.5464 49.3891 28.1567 49.2526 28.7333 48.8385C29.3107 48.4199 29.7486 47.8371 30.0461 47.091ZM8.62454 60.0125C8.56243 60.297 8.75642 60.4887 9.20652 60.5861C9.66122 60.685 10.1535 60.4749 10.6849 59.9573C11.217 59.4343 11.5636 58.7986 11.7262 58.0495C11.7706 57.8447 11.7913 57.6868 11.789 57.5764C9.84142 58.4513 8.78709 59.2633 8.62454 60.0125ZM30.9624 47.1723L30.684 47.1508C30.2692 48.196 29.6458 49.0072 28.8146 49.5862C27.988 50.1651 27.0825 50.3484 26.0987 50.1345C25.6892 50.0455 25.5359 49.761 25.6402 49.2818C25.7444 48.8025 26.2643 48.2374 27.1998 47.5879C28.1406 46.9392 29.1558 46.5995 30.2454 46.5696L30.2876 46.3748C30.4164 45.7805 30.3466 45.1011 30.0783 44.3358C27.597 44.8021 25.5152 45.6716 23.8321 46.9438C22.149 48.2159 21.1706 49.4842 20.8969 50.7479C20.5894 52.1665 21.2549 53.0537 22.8928 53.4095C24.536 53.7661 26.4675 53.3528 28.685 52.1703C30.9033 50.9879 32.1348 49.83 32.3809 48.6959C32.5488 47.9214 32.0757 47.4138 30.9624 47.1723ZM38.3794 59.7503C40.498 58.9543 42.2271 57.9038 43.5659 56.5987C44.9055 55.2936 45.7367 53.8972 46.0603 52.408C46.3823 50.9243 46.048 49.5333 45.0581 48.2366C43.5652 48.9957 42.05 49.9036 40.5126 50.9618C38.9691 52.0239 36.9946 53.4839 34.5885 55.3419C32.1823 57.1998 30.5935 58.4091 29.8237 58.9696C30.5598 59.4589 31.1985 60.0708 31.7399 60.8054C34.0464 60.9028 36.2593 60.5508 38.3794 59.7503ZM54.5485 45.4301C54.7832 45.4807 54.9058 45.6018 54.9173 45.7928C54.8675 46.0228 54.5892 46.124 54.0823 46.098C51.5021 45.8886 48.8115 46.44 46.0104 47.7527C47.1989 49.146 47.6 50.7341 47.2135 52.5169C46.6975 54.8948 44.9952 56.9683 42.106 58.7381C39.2229 60.5033 35.869 61.3506 32.0451 61.2793C32.5749 62.0691 33.1025 63.0959 33.6285 64.3611C34.1491 65.6248 34.6245 66.798 35.0547 67.88C35.4841 68.962 35.9886 70.0386 36.5668 71.1106C37.8511 73.4133 39.7596 74.8396 42.2923 75.3894C43.1166 75.568 43.7883 75.6194 44.3066 75.5435C44.825 75.4676 45.2413 75.3955 45.5534 75.328C46.2903 75.1632 46.7304 75.0972 46.8761 75.1279C47.0157 75.1586 47.0747 75.226 47.0517 75.3311C47.0126 75.5113 46.732 75.6854 46.2083 75.8541C45.6838 76.0281 45.2015 76.1324 44.7598 76.1677C43.171 76.2574 42.0669 76.2352 41.4473 76.1002C38.8893 75.545 36.9364 74.0129 35.5868 71.5024C34.9696 70.3691 34.4436 69.2357 34.0103 68.1001C33.5817 66.966 33.1109 65.7345 32.5994 64.4048C32.0926 63.0759 31.5865 62.0193 31.082 61.2356C30.0392 61.1719 28.9756 61.0216 27.8914 60.7862L27.4267 60.6858C23.826 63.1794 20.3777 64.9814 17.0821 66.0926C13.7865 67.2037 10.4073 67.3831 6.94605 66.6324C4.30833 66.0603 2.44122 65.0934 1.34549 63.73C0.248231 62.3728 -0.119057 60.8598 0.242864 59.1913C0.604784 57.5227 1.67214 56.1455 3.4457 55.0604C5.22463 53.9716 7.22593 53.6679 9.44882 54.1502C11.2324 54.5367 12.2223 55.4001 12.4178 56.7398C15.2012 55.7483 17.9363 55.5435 20.6246 56.1271C20.9429 56.2743 21.0824 56.4407 21.0425 56.6255C21.0264 56.7007 20.9536 56.7237 20.8232 56.6953C18.0053 56.0841 15.215 56.2896 12.4508 57.3118C12.4577 57.423 12.4331 57.6086 12.3772 57.8685C12.1755 58.7979 11.6993 59.6199 10.9479 60.3361C10.1964 61.0515 9.44576 61.3284 8.69661 61.1658C7.94747 61.0032 7.63462 60.6375 7.75731 60.0677C7.86312 59.5785 8.28255 59.0463 9.01329 58.4728C9.74864 57.9053 10.6626 57.4023 11.7568 56.9652C11.5444 55.7007 10.6044 54.8871 8.93585 54.5252C7.27194 54.164 5.71997 54.4968 4.27843 55.5236C2.84225 56.5511 1.95892 57.8271 1.62844 59.3508C1.29795 60.8744 1.61157 62.2608 2.57004 63.5092C3.52852 64.7583 5.34425 65.6723 8.01648 66.2521C10.6941 66.8325 13.5549 66.5825 16.599 65.5006C19.6485 64.4148 22.9043 62.691 26.3663 60.33C25.1594 59.7702 24.6257 59.1675 24.7653 58.5234C24.8327 58.2136 25.1049 57.9958 25.5819 57.8693C26.0542 57.7412 26.6124 57.7474 27.2573 57.8869C27.9068 58.028 28.4749 58.2189 28.9611 58.4605C29.701 57.9199 31.3005 56.7183 33.7596 54.8565C36.2194 52.9939 38.2429 51.5262 39.8302 50.4534C41.4136 49.3738 42.9801 48.4482 44.529 47.6745C43.1358 46.2375 41.0777 45.223 38.3549 44.6326C35.6275 44.0406 33.1078 43.9003 30.7967 44.2093C31.0467 44.9125 31.1303 45.4584 31.0452 45.8488C30.9616 46.2337 30.8964 46.4752 30.8481 46.5749C30.9585 46.5726 31.1288 46.5964 31.3588 46.6462C33.0127 47.0051 33.7297 47.6891 33.5104 48.6975C33.3317 49.5218 32.6017 50.4044 31.3205 51.3452C30.0338 52.2854 28.534 53.0269 26.8202 53.5705C25.1011 54.118 23.6864 54.2722 22.5776 54.0314C21.4689 53.7906 20.7044 53.3819 20.2857 52.8045C19.8717 52.2286 19.749 51.5531 19.9169 50.7786C20.2136 49.4098 21.2756 48.0365 23.1013 46.66C24.927 45.2828 27.1806 44.3466 29.862 43.8497C28.9074 42.1259 27.1139 40.978 24.4808 40.4075C22.6973 40.021 20.9636 39.9351 19.2797 40.1498C17.5959 40.3653 16.1773 40.7686 15.0241 41.3614C12.6724 42.5829 11.0062 43.7753 10.027 44.9378L9.37675 45.6916C9.20269 45.8679 9.03783 45.94 8.88294 45.9063C8.72805 45.8725 8.68128 45.7161 8.74185 45.4362C9.28167 44.6847 10.1083 43.8627 11.2224 42.9694C12.3365 42.076 13.4645 41.3606 14.607 40.8238C15.7533 40.2878 17.2531 39.8968 19.1064 39.6499C20.959 39.4029 22.8797 39.4957 24.868 39.9259C27.6859 40.5371 29.5875 41.8 30.5744 43.7139C33.2282 43.3428 36.007 43.4716 38.9093 44.102C41.8169 44.7323 44.0068 45.7774 45.479 47.2374C48.8176 45.6862 51.841 45.0842 54.5485 45.4301ZM45.1639 66.5411C45.0159 67.6147 45.3602 68.3148 46.1975 68.6422C46.2412 68.5141 46.2911 68.2473 46.3463 67.8424C46.4023 67.4375 46.3455 67.084 46.1761 66.7819C46.0012 66.479 45.7973 66.3119 45.5642 66.2789C45.3265 66.2459 45.193 66.3333 45.1639 66.5411ZM45.956 69.2127C44.6931 68.9037 44.1096 68.1031 44.2054 66.8111C43.316 66.7137 42.4173 67.0902 41.5102 67.9406C40.6092 68.7864 40.0986 69.6421 39.9789 70.5078C39.8455 71.4748 40.2872 72.0292 41.3055 72.1695C41.9894 72.2638 42.8222 72.0254 43.8036 71.4549C44.7905 70.8844 45.5082 70.1367 45.956 69.2127ZM38.5995 70.6351C38.7444 69.5869 39.4522 68.5517 40.7235 67.5303C42.0002 66.5043 43.2178 66.0588 44.3764 66.1922C44.6778 65.7283 45.1125 65.5351 45.6792 65.6141C46.2412 65.6915 46.6622 65.9147 46.9413 66.2835C47.225 66.6585 47.3316 67.1009 47.261 67.6131C47.1905 68.1246 47.0801 68.5302 46.9298 68.8285C47.6897 68.9336 48.5653 68.8661 49.5591 68.6269C50.5567 68.393 51.1586 68.1974 51.3664 68.041L51.5358 68.2657C51.5289 68.3163 51.4063 68.4183 51.1686 68.5709C50.9355 68.7242 50.3374 68.9075 49.3743 69.1199C48.4104 69.3377 47.521 69.4029 46.7082 69.317C46.1362 70.3576 45.269 71.2187 44.1065 71.8988C42.9441 72.5798 41.8008 72.842 40.6767 72.6871C39.1324 72.4739 38.44 71.79 38.5995 70.6351ZM59.8209 69.5984C60.373 68.8301 60.6728 68.1967 60.7203 67.6983C60.7686 67.1945 60.6483 66.9284 60.3584 66.9C60.1752 66.8824 59.9942 66.9775 59.8148 67.1868C59.6353 67.3954 59.5196 67.7696 59.4674 68.3086C59.4153 68.8477 59.5334 69.2779 59.8209 69.5984ZM55.5354 69.3852C55.5484 69.2526 55.4503 69.1767 55.2409 69.156C54.7678 69.11 54.2863 69.3645 53.7963 69.9182C53.3017 70.4664 52.972 71.0638 52.8072 71.7102C54.5777 70.6589 55.4871 69.8837 55.5354 69.3852ZM59.9006 70.4457C58.9698 71.5216 57.8656 72.4295 56.5874 73.1687C55.3084 73.9133 54.2142 74.2415 53.3025 74.154C52.3969 74.0666 51.9177 73.6065 51.864 72.7745C50.2484 73.5483 49.0338 73.8956 48.2203 73.8166C47.4014 73.7377 47.018 73.4233 47.0709 72.8742C47.1598 71.9533 48.3514 70.3553 50.6464 68.0809C50.9416 67.7857 51.3004 67.4536 51.7206 67.0833C52.1416 66.7129 52.3862 66.4928 52.4544 66.4223C52.5288 66.3471 52.6599 66.3188 52.8478 66.3364C53.0311 66.354 53.1139 66.4491 53.0978 66.6224C53.0817 66.7903 52.9191 67.0135 52.6093 67.2918C52.3057 67.5656 51.861 67.9927 51.2767 68.5732C50.6863 69.1529 50.0452 69.8614 49.3536 70.6988C48.662 71.5361 48.3039 72.0737 48.2809 72.3129C48.2349 72.786 48.4235 73.0429 48.8452 73.0836C49.5576 73.1526 50.5827 72.8535 51.9208 72.1872C52.1194 71.2463 52.6354 70.3714 53.4689 69.5631C54.3016 68.7549 55.1788 68.3953 56.0997 68.4842C56.4708 68.5203 56.6441 68.6706 56.6188 68.9351C56.5836 69.3017 56.1825 69.8124 55.415 70.4672C54.6474 71.1274 53.7426 71.7516 52.6998 72.339C52.6845 73.082 53.051 73.49 53.7986 73.5621C54.5516 73.6349 55.4725 73.3259 56.5613 72.635C57.6509 71.9387 58.5979 71.1136 59.4045 70.1589C58.8402 69.6782 58.5918 69.0816 58.6608 68.3692C58.729 67.6622 58.9491 67.1132 59.3202 66.7229C59.6921 66.3326 60.1598 66.1646 60.7249 66.2191C61.2901 66.2735 61.537 66.6646 61.4664 67.3923C61.3966 68.1146 61.0094 68.9581 60.3055 69.9228C60.5647 70.0041 60.7855 70.0539 60.9688 70.0715C61.9963 70.1705 63.1257 69.8821 64.3572 69.205L64.5366 69.422C64.5289 69.4987 64.4975 69.5593 64.4423 69.6061C63.0122 70.3721 61.7202 70.6988 60.5647 70.5876C60.3761 70.5692 60.1552 70.5224 59.9006 70.4457ZM62.2317 72.8558L62.2133 73.1319C65.2413 72.1933 66.7925 71.1581 66.8668 70.0248C66.9052 69.4435 66.5617 69.1284 65.8371 69.0816C65.1124 69.034 64.3434 69.4343 63.5298 70.2824C62.7216 71.1259 62.2884 71.984 62.2317 72.8558ZM67.8744 69.7686C67.7709 71.3498 65.913 72.6058 62.3022 73.5368C62.4763 74.1579 63.0383 74.4999 63.9868 74.562C65.5932 74.6678 67.1674 74.1073 68.7079 72.8819C68.7915 72.7853 68.8789 72.7393 68.9701 72.7454C69.0667 72.7515 69.1097 72.839 69.0989 73.0077C69.0874 73.181 68.829 73.4486 68.3237 73.8097C67.823 74.1763 67.1275 74.5152 66.2365 74.825C65.3402 75.1402 64.4706 75.2697 63.6287 75.2145C61.8329 75.0964 60.9787 74.3772 61.0654 73.056C61.1367 71.9748 61.7563 70.9166 62.9264 69.8814C64.0903 68.8462 65.3049 68.37 66.5701 68.4536C67.4933 68.5141 67.9281 68.9528 67.8744 69.7686ZM77.4683 69.6782C77.4492 70.2862 76.9055 71.1359 75.8374 72.227C74.7747 73.319 74.2371 74.0766 74.2241 74.5006C74.2149 74.792 74.3943 74.9431 74.7616 74.9553C75.5284 74.9799 76.631 74.3779 78.0718 73.1495C78.1569 73.0498 78.2451 73.0015 78.3371 73.0046C78.4291 73.0077 78.4728 73.0751 78.469 73.2086C78.459 73.5252 77.9069 74.0091 76.812 74.6594C75.7224 75.315 74.7532 75.6301 73.9051 75.6033C73.3277 75.5849 73.0486 75.2843 73.067 74.7023C73.0854 74.1195 73.613 73.2822 74.6497 72.1895C75.6917 71.0975 76.2185 70.3675 76.2308 69.9995C76.2423 69.6314 75.9233 69.4427 75.2738 69.432C74.6244 69.4266 73.4527 69.8476 71.7589 70.6942C71.3801 71.0247 70.5551 71.8835 69.2837 73.2699C68.007 74.6563 67.33 75.3641 67.2525 75.3924C66.9612 75.3832 66.8201 75.246 66.8285 74.9799C66.8569 74.8986 67.057 74.6394 67.4289 74.2008C67.8008 73.7622 68.0392 73.4938 68.1443 73.3957L71.4829 69.4888C72.3033 68.62 72.7925 68.1875 72.9505 68.1921C73.2672 68.202 73.4213 68.3378 73.4136 68.5985C73.3331 68.7288 73.1682 68.9229 72.919 69.1813C72.676 69.4397 72.4973 69.659 72.3846 69.8392C73.922 68.9367 75.1527 68.4996 76.0774 68.5295C76.4708 68.5417 76.7844 68.6437 77.019 68.8354C77.2483 69.0271 77.3978 69.3078 77.4683 69.6782ZM80.2656 75.134C81.2984 75.1325 82.447 74.5957 83.713 73.5252C84.979 72.4494 85.7181 71.5277 85.9321 70.7609C85.9313 70.4442 85.7319 70.1735 85.3324 69.9488C84.9329 69.7249 84.4836 69.613 83.9821 69.6137C82.7653 69.616 81.6496 70.1398 80.6344 71.1842C79.6192 72.2339 79.1123 73.1549 79.1131 73.9478C79.1146 74.7399 79.4988 75.1356 80.2656 75.134ZM84.3418 68.9765C85.2673 68.975 86.034 69.3055 86.6436 69.9695C86.6689 69.9695 86.8783 69.7694 87.2716 69.3699C87.4603 69.0785 87.6719 68.9321 87.9065 68.9321C88.1465 68.9313 88.2669 69.0517 88.2677 69.2917L88.1074 69.6444C88.0261 69.7778 87.5055 70.4273 86.547 71.5952C85.5832 72.7577 85.0296 73.4463 84.8869 73.661C84.739 73.8711 84.6653 74.1878 84.6661 74.6126C84.6669 74.904 84.8509 75.0497 85.219 75.0481C85.9857 75.0466 87.0707 74.4086 88.4747 73.1334C88.5514 73.0307 88.6357 72.98 88.727 72.9793C88.819 72.9793 88.865 73.0452 88.8658 73.1786C88.8665 73.4953 88.3328 73.9976 87.2655 74.6839C86.1935 75.3763 85.2351 75.7229 84.3924 75.7245C83.8096 75.7252 83.5175 75.4216 83.5159 74.8135C83.5152 74.5988 83.4822 74.4914 83.4163 74.4922C83.3495 74.4922 83.3035 74.5052 83.2782 74.5305C81.9609 75.407 80.7118 75.8464 79.531 75.8487C78.3555 75.851 77.7666 75.3227 77.7643 74.2645C77.762 73.1549 78.4222 71.9985 79.7441 70.7946C81.0607 69.5861 82.5935 68.9796 84.3418 68.9765ZM120.116 61.8728L119.208 63.1917L119.991 63.0882C120.832 62.9762 121.459 62.8673 121.874 62.7608C121.31 62.3559 120.724 62.0599 120.116 61.8728ZM118.086 63.1863L119.17 61.6811C118.677 61.6128 118.267 61.5998 117.943 61.6427C117.613 61.6865 117.344 61.8099 117.134 62.0131C116.918 62.2117 116.823 62.405 116.847 62.5928C116.895 62.9578 117.309 63.1557 118.086 63.1863ZM116.632 50.136C115.896 50.4189 115.284 50.8798 114.797 51.517C114.31 52.1596 114.083 52.6097 114.117 52.8681C114.153 53.1319 114.248 53.2531 114.406 53.2316C115.06 53.145 115.587 52.8091 115.989 52.2248C116.39 51.6351 116.605 50.9388 116.632 50.136ZM100.854 69.5501C100.892 69.8392 101.139 69.9534 101.595 69.8921C102.056 69.8308 102.448 69.4665 102.773 68.8002C103.096 68.1284 103.208 67.4122 103.107 66.6516C103.08 66.4438 103.046 66.2881 103.006 66.1853C101.47 67.6683 100.752 68.7894 100.854 69.5501ZM117.522 49.9021L117.253 49.9765C117.217 51.1006 116.905 52.0753 116.319 52.9003C115.738 53.7254 114.947 54.2039 113.949 54.3366C113.533 54.3918 113.293 54.1763 113.229 53.6902C113.164 53.204 113.462 52.4962 114.123 51.5676C114.788 50.639 115.629 49.9757 116.643 49.5777L116.617 49.3799C116.537 48.7772 116.241 48.1615 115.73 47.5334C113.553 48.8125 111.889 50.3354 110.737 52.1021C109.584 53.8688 109.093 55.394 109.263 56.6761C109.454 58.1154 110.381 58.7243 112.042 58.5042C113.709 58.2826 115.386 57.2405 117.073 55.3764C118.759 53.513 119.525 52.0055 119.373 50.8553C119.269 50.07 118.651 49.7518 117.522 49.9021ZM128.761 59.2242C130.484 57.7581 131.756 56.1838 132.574 54.5022C133.392 52.8206 133.701 51.2249 133.501 49.715C133.301 48.2098 132.515 47.0143 131.145 46.1294C129.997 47.3494 128.879 48.7174 127.791 50.2334C126.699 51.7555 125.335 53.7975 123.701 56.361C122.066 58.9244 120.981 60.5999 120.446 61.3874C121.304 61.5983 122.113 61.9579 122.871 62.4663C125.074 61.7769 127.038 60.6965 128.761 59.2242ZM139.124 40.274C139.363 40.2426 139.519 40.3147 139.594 40.4903C139.624 40.7234 139.397 40.9136 138.911 41.06C136.412 41.7371 134.067 43.1672 131.878 45.3511C133.468 46.259 134.383 47.6178 134.623 49.4267C134.943 51.8391 134.043 54.3665 131.924 57.0097C129.81 59.6467 126.941 61.5799 123.319 62.8091C124.085 63.3727 124.929 64.1602 125.853 65.1724C126.772 66.1853 127.616 67.1277 128.386 67.9996C129.156 68.8722 129.995 69.715 130.903 70.5278C132.891 72.2592 135.17 72.9547 137.739 72.6135C138.575 72.5023 139.224 72.3237 139.686 72.0767C140.149 71.8298 140.515 71.6213 140.787 71.451C141.424 71.0469 141.817 70.8345 141.963 70.8153C142.105 70.7962 142.183 70.8406 142.198 70.9465C142.222 71.129 142.017 71.3881 141.581 71.7248C141.147 72.066 140.728 72.3283 140.324 72.5108C138.86 73.1334 137.814 73.4861 137.185 73.569C134.59 73.9133 132.233 73.1326 130.114 71.2279C129.149 70.3706 128.271 69.4819 127.478 68.5609C126.69 67.6392 125.831 66.6393 124.899 65.5619C123.972 64.483 123.139 63.661 122.398 63.0936C121.395 63.3865 120.344 63.6058 119.244 63.7515L118.772 63.8144C116.229 67.38 113.595 70.2441 110.871 72.4049C108.146 74.5666 105.028 75.8801 101.516 76.3463C98.8408 76.7014 96.7567 76.4238 95.2638 75.5136C93.7716 74.608 92.9136 73.309 92.6889 71.6159C92.4643 69.9235 93.0025 68.2665 94.303 66.6447C95.6081 65.0175 97.3885 64.0536 99.6436 63.7545C101.452 63.5145 102.676 63.9915 103.314 65.1854C105.597 63.3098 108.102 62.191 110.829 61.8291C111.178 61.8598 111.365 61.9694 111.39 62.1565C111.4 62.2324 111.339 62.2792 111.207 62.2968C108.35 62.6764 105.793 63.8151 103.539 65.713C103.583 65.8157 103.623 65.9982 103.658 66.2612C103.783 67.2037 103.614 68.1392 103.149 69.0678C102.684 69.9956 102.071 70.5101 101.311 70.6106C100.551 70.7118 100.133 70.4733 100.057 69.8959C99.991 69.399 100.205 68.7572 100.698 67.9697C101.197 67.1868 101.888 66.4039 102.769 65.6217C102.141 64.5037 100.981 64.0567 99.2878 64.2813C97.6002 64.5053 96.2522 65.3441 95.2438 66.798C94.2401 68.2511 93.8414 69.751 94.0469 71.2969C94.2524 72.8428 95.0169 74.0405 96.3411 74.8909C97.6661 75.7413 99.6835 75.9867 102.395 75.6263C105.111 75.2659 107.718 74.0612 110.215 72.0123C112.717 69.958 115.196 67.2336 117.655 63.8389C116.329 63.7208 115.623 63.3351 115.536 62.6818C115.494 62.3674 115.676 62.0699 116.083 61.7892C116.484 61.5093 117.011 61.3253 117.665 61.2386C118.324 61.1512 118.923 61.139 119.463 61.2011C119.976 60.4419 121.074 58.7695 122.757 56.1846C124.44 53.5989 125.847 51.5331 126.977 49.9849C128.101 48.4329 129.261 47.0312 130.457 45.7797C128.659 44.8994 126.379 44.6426 123.617 45.0091C120.85 45.3764 118.432 46.0972 116.362 47.1707C116.836 47.7474 117.099 48.2335 117.152 48.6284C117.204 49.0187 117.224 49.2687 117.213 49.3784C117.316 49.3393 117.484 49.304 117.717 49.2726C119.394 49.0502 120.301 49.4505 120.436 50.4742C120.548 51.31 120.16 52.3881 119.272 53.7078C118.38 55.0275 117.22 56.2337 115.792 57.3256C114.36 58.4237 113.081 59.0471 111.957 59.1959C110.832 59.3454 109.974 59.2189 109.385 58.8178C108.801 58.416 108.456 57.8217 108.351 57.0365C108.167 55.6478 108.701 53.9969 109.952 52.0829C111.204 50.169 113.007 48.5242 115.362 47.1485C113.88 45.8495 111.803 45.3779 109.133 45.7322C107.324 45.9722 105.663 46.4791 104.152 47.252C102.641 48.025 101.442 48.8853 100.558 49.8331C98.758 51.7785 97.5948 53.4647 97.0672 54.891L96.7107 55.8204C96.6064 56.0458 96.4761 56.1685 96.3189 56.1892C96.1617 56.2099 96.0643 56.0788 96.0267 55.7951C96.2798 54.9056 96.7797 53.8512 97.5258 52.6335C98.2719 51.4158 99.0908 50.3607 99.9833 49.4689C100.88 48.5763 102.159 47.6998 103.819 46.8402C105.479 45.9806 107.317 45.417 109.334 45.1487C112.192 44.7691 114.41 45.3127 115.986 46.7797C118.358 45.5313 121.015 44.7123 123.959 44.3213C126.908 43.9302 129.323 44.1717 131.203 45.0459C133.819 42.4556 136.46 40.8645 139.124 40.274ZM134.396 68.5149L134.452 68.7856C137.127 67.0856 138.352 65.6792 138.126 64.5674C138.01 63.9961 137.597 63.7829 136.885 63.9263C136.174 64.0705 135.537 64.6586 134.975 65.6907C134.416 66.7167 134.223 67.6584 134.396 68.5149ZM139.032 64.0551C139.347 65.6079 137.884 67.3079 134.643 69.1537C134.975 69.7073 135.606 69.8898 136.538 69.7004C138.116 69.3806 139.488 68.4267 140.653 66.8402C140.708 66.7244 140.78 66.6577 140.87 66.6401C140.965 66.6209 141.03 66.6937 141.064 66.8586C141.098 67.0288 140.919 67.3547 140.526 67.8363C140.14 68.3217 139.557 68.8308 138.778 69.3638C137.995 69.9028 137.191 70.2563 136.364 70.4243C134.6 70.7816 133.587 70.3115 133.324 69.0141C133.109 67.9521 133.43 66.7681 134.287 65.463C135.139 64.1587 136.185 63.3803 137.428 63.1281C138.335 62.944 138.87 63.2531 139.032 64.0551ZM144.816 67.5472C144.719 67.1339 144.757 66.6631 144.932 66.1332C144.926 66.1087 144.92 66.0811 144.912 66.0511C144.906 66.0266 144.894 66.0289 144.875 66.0596C143.5 67.9337 142.246 69.0049 141.112 69.2733C140.366 69.4496 139.932 69.2817 139.811 68.7687C139.689 68.2511 139.874 67.4245 140.367 66.2896C140.86 65.154 141.386 64.1295 141.941 63.2147C142.501 62.2945 142.766 61.8904 142.735 62.0032C142.834 61.8429 142.973 61.7424 143.152 61.7003C143.332 61.6581 143.441 61.7217 143.48 61.8904C143.52 62.0599 143.481 62.2393 143.364 62.4303C143.246 62.6212 143.032 63.0023 142.721 63.5751C142.411 64.1525 142.167 64.6118 141.99 64.9531C141.808 65.2951 141.596 65.6976 141.353 66.1593C140.925 67.1063 140.753 67.7581 140.838 68.1162C140.905 68.3999 141.145 68.4927 141.558 68.3953C141.971 68.2979 142.493 67.9168 143.124 67.2535C143.754 66.5848 144.277 65.9308 144.693 65.2912L145.334 64.368C146.188 63.158 146.74 62.2263 146.991 61.5737C147.158 61.2348 147.358 61.0377 147.591 60.9825C147.82 60.9288 147.955 60.991 147.998 61.1696C148.035 61.3238 147.802 61.8283 147.3 62.6825C146.295 64.4117 145.769 65.4055 145.719 65.6639C145.598 66.3119 145.563 66.7405 145.613 66.9491C145.71 67.3624 146.075 67.4935 146.707 67.3448C147.339 67.1952 148.19 66.3402 149.26 64.7798C149.312 64.6625 149.382 64.5934 149.471 64.5727C149.566 64.5505 149.628 64.6042 149.659 64.733C149.732 65.0413 149.325 65.6524 148.438 66.5657C147.557 67.4828 146.703 68.0387 145.877 68.2343C145.309 68.3684 144.956 68.1392 144.816 67.5472ZM149.516 66.1447L149.317 65.7061C149.109 64.9416 149.246 64.2346 149.727 63.5843C150.207 62.9348 150.81 62.5115 151.535 62.3145C152.265 62.1159 152.716 62.3352 152.889 62.9716C152.965 63.2531 152.946 63.5598 152.83 63.8933C152.714 64.2269 152.548 64.4232 152.33 64.4822C152.113 64.5413 151.982 64.4869 151.936 64.3189C151.891 64.151 151.931 63.9677 152.057 63.7699C152.178 63.5728 152.218 63.398 152.176 63.2446C152.058 62.8106 151.798 62.648 151.393 62.7585C150.983 62.8696 150.644 63.1603 150.375 63.6311C150.105 64.1019 150.038 64.5858 150.174 65.0842C150.309 65.5826 150.55 65.9622 150.896 66.2229C151.237 66.4852 151.684 66.5411 152.237 66.3908C152.785 66.2421 153.192 65.8801 153.459 65.3043C153.725 64.7238 153.868 64.0674 153.886 63.3366C153.91 62.6043 153.949 61.8605 154.003 61.1037C154.058 60.3522 154.271 59.672 154.64 59.0632C155.01 58.4543 155.488 58.0702 156.075 57.9107C156.662 57.7512 157.147 57.7228 157.53 57.8256C157.913 57.9283 158.146 58.1323 158.229 58.4382C158.311 58.7442 158.271 59.0701 158.105 59.4175C157.94 59.7641 157.716 59.9757 157.436 60.0516C157.154 60.1283 156.984 60.1053 156.924 59.9841C156.869 59.7817 156.962 59.5662 157.201 59.337C157.339 59.2411 157.367 59.0402 157.284 58.7342C157.174 58.3294 156.838 58.2036 156.276 58.357C155.714 58.5096 155.341 59.0003 155.158 59.8285C154.97 60.6582 154.896 61.5285 154.938 62.4387C154.982 63.3428 154.782 64.2453 154.337 65.1448C153.899 66.0481 153.145 66.6447 152.075 66.9353C151.408 67.1162 150.843 67.1032 150.379 66.8954C149.911 66.6937 149.623 66.4438 149.516 66.1447ZM157.832 63.8933L157.62 63.4609C157.388 62.7032 157.503 61.9916 157.962 61.3276C158.422 60.6635 159.011 60.2211 159.729 60.001C160.453 59.7802 160.911 59.9849 161.104 60.6152C161.189 60.8936 161.179 61.2018 161.073 61.5392C160.968 61.8759 160.807 62.0775 160.593 62.1427C160.377 62.2087 160.245 62.158 160.194 61.9924C160.143 61.826 160.178 61.642 160.297 61.4395C160.412 61.2386 160.447 61.0623 160.4 60.9104C160.268 60.4803 160.002 60.3261 159.602 60.4496C159.196 60.5738 158.866 60.8752 158.611 61.3537C158.357 61.8322 158.305 62.3183 158.456 62.8121C158.607 63.306 158.859 63.6779 159.214 63.9278C159.564 64.1794 160.012 64.2208 160.559 64.0536C161.102 63.888 161.497 63.513 161.747 62.9287C161.994 62.3398 162.116 61.6796 162.112 60.9488C162.112 60.2165 162.128 59.4711 162.158 58.7135C162.189 57.9605 162.381 57.2742 162.731 56.6539C163.082 56.0335 163.548 55.6348 164.129 55.4569C164.711 55.279 165.195 55.2353 165.581 55.3258C165.966 55.4162 166.205 55.6133 166.298 55.9162C166.391 56.2191 166.36 56.5465 166.206 56.8985C166.051 57.2505 165.834 57.469 165.556 57.5541C165.278 57.6392 165.107 57.6224 165.043 57.5027C164.982 57.3026 165.068 57.0841 165.3 56.8471C165.435 56.7467 165.456 56.5458 165.364 56.2421C165.241 55.8411 164.901 55.726 164.344 55.8963C163.786 56.0665 163.43 56.5688 163.273 57.4023C163.111 58.2373 163.065 59.1092 163.135 60.0186C163.207 60.9212 163.036 61.8291 162.62 62.7424C162.211 63.6587 161.475 64.279 160.415 64.6026C159.755 64.8043 159.189 64.8089 158.719 64.6164C158.245 64.4301 157.949 64.1886 157.832 63.8933Z" fill="#303030"/>
</g>
</g>
</g>
</g>
<g clip-path="url(#clip8_29_773)">
<g clip-path="url(#clip9_29_773)">
<path d="M88.1838 10.1147C81.4039 10.1147 75.8865 15.6315 75.8865 22.4126C75.8865 29.1933 81.403 34.711 88.1838 34.711C94.9642 34.711 100.481 29.1933 100.481 22.4126C100.481 15.6315 94.9642 10.1147 88.1838 10.1147ZM88.1838 33.7415C81.9376 33.7415 76.855 28.6591 76.855 22.4121C76.855 16.1646 81.9371 11.0823 88.1838 11.0823C94.4306 11.0823 99.5127 16.1646 99.5127 22.4126C99.5127 28.6591 94.4311 33.7415 88.1838 33.7415Z" fill="#DDBB60"/>
<path d="M88.1839 12.2402C82.5749 12.2402 78.0123 16.8034 78.0123 22.4122C78.0123 28.0209 82.5754 32.5846 88.1839 32.5846C93.7934 32.5846 98.3564 28.0209 98.3564 22.4122C98.3564 16.8034 93.7934 12.2402 88.1839 12.2402ZM88.1839 31.6161C83.1095 31.6161 78.9808 27.4873 78.9808 22.4122C78.9808 17.3371 83.1095 13.2083 88.1839 13.2083C93.2583 13.2083 97.3879 17.3366 97.3879 22.4127C97.3879 27.4873 93.2592 31.6161 88.1839 31.6161Z" fill="#DDBB60"/>
<path d="M106.957 12.2402H105.351C105.226 11.1405 104.672 10.0712 103.737 9.11093L103.862 7.81794C103.885 7.58211 103.733 7.36419 103.505 7.30317L100.395 6.47169C100.35 6.44118 100.304 6.41358 100.249 6.39905C100.194 6.38452 100.138 6.38452 100.084 6.38888L98.4329 5.94772L98.4319 5.94724L96.7419 5.49493C96.509 5.43198 96.2727 5.54723 96.1753 5.76273L95.9739 6.20825L95.1148 4.23052C94.6664 3.19759 93.6408 2.33221 92.5212 1.94044C92.5212 1.9356 92.5241 1.93124 92.5241 1.92688C92.5241 0.647944 91.0637 0 88.1858 0C85.3108 0 83.8523 0.646491 83.8475 1.92107C82.726 2.30751 81.6955 3.16563 81.2388 4.19323L80.0277 6.91818L71.5186 7.33174C71.1051 7.34143 70.5874 7.36952 70.047 7.41213C69.4402 7.03925 68.463 6.86346 67.5294 6.86346C66.0268 6.86346 64.4099 7.31818 64.4099 8.31673C64.4099 8.36129 64.4167 8.40342 64.423 8.44652L62.6913 9.11964L61.9819 9.39616C61.8749 9.43829 61.7863 9.51626 61.7316 9.61747C61.396 10.2402 61.1132 10.8906 60.874 11.556L59.7181 10.9782C59.4784 10.8581 59.1878 10.956 59.0682 11.1947C58.9486 11.4339 59.0455 11.725 59.2847 11.8446L60.5737 12.4891C60.2076 13.7734 60.012 15.109 60.012 16.4538V35.2883C60.012 36.2219 60.7713 36.9812 61.7044 36.9812H70.5797C70.6412 36.9812 70.7027 36.9701 70.7603 36.9464L71.5036 36.6485H101.456C102.791 36.6485 104.1 36.0229 105.243 34.8393C105.33 34.7483 105.378 34.6272 105.378 34.5028V13.2092H106.957C107.225 13.2092 107.441 12.9923 107.441 12.725C107.441 12.4567 107.225 12.2402 106.957 12.2402ZM88.1839 35.6791C80.8694 35.6791 74.9175 29.7275 74.9175 22.4122C74.9175 15.0969 80.8689 9.14531 88.1839 9.14531C95.4989 9.14531 101.451 15.0964 101.451 22.4127C101.451 29.7275 95.4993 35.6791 88.1839 35.6791ZM98.3472 32.3662V32.8882C98.3472 33.587 97.5627 34.1783 96.6339 34.1783H96.186C96.9651 33.6471 97.6881 33.0389 98.3472 32.3662ZM78.0215 32.3662C78.6801 33.0384 79.4036 33.6471 80.1832 34.1783H79.7353C78.8065 34.1783 78.0215 33.587 78.0215 32.8882V32.3662ZM74.5868 17.2456C74.5868 16.8456 74.8802 16.5143 75.2628 16.4514C75.0705 16.8659 74.8982 17.2916 74.7456 17.7274C74.6449 17.5918 74.5868 17.4243 74.5868 17.2456ZM81.2161 6.6252C82.6112 7.42133 86.3486 7.52303 88.1577 7.52303C89.9673 7.52303 93.7038 7.42085 95.0998 6.6252L97.1637 11.3763C94.712 9.37776 91.5866 8.17727 88.1853 8.17727C84.7084 8.17727 81.5207 9.43199 79.0457 11.51L81.2161 6.6252ZM81.9822 4.90123H94.3502L94.7124 5.73561C94.7066 5.75063 94.6969 5.7637 94.6921 5.7792C94.2994 6.06491 92.1019 6.55499 88.1577 6.55499C84.2136 6.55499 82.0156 6.06491 81.6233 5.77871C81.6199 5.7666 81.6117 5.75692 81.6074 5.7453L81.9822 4.90123ZM99.522 7.24119L99.3839 7.75499L98.5128 7.52206L98.6493 7.00826L99.522 7.24119ZM101.329 7.72448L101.192 8.23829L100.32 8.00535L100.457 7.49155L101.329 7.72448ZM96.7782 8.06008L97.7942 8.33223L102.985 9.72013C103.784 10.5187 104.246 11.3647 104.372 12.2402H98.5941L96.7782 8.06008ZM102.806 8.66976L102.127 8.48816L102.264 7.97436L102.858 8.13271L102.806 8.66976ZM96.8877 6.53658L97.7143 6.75741L97.5772 7.27121L96.6649 7.02714L96.8877 6.53658ZM88.1839 0.967558C89.992 0.967558 91.2341 1.26151 91.4995 1.73124C91.4283 1.7264 91.3562 1.71284 91.2854 1.71235L85.0857 1.69783C85.0833 1.69783 85.0808 1.69783 85.0779 1.69783C85.0116 1.69783 84.9443 1.7109 84.8765 1.71526C85.1617 1.25473 86.397 0.967558 88.1839 0.967558ZM85.0779 2.66635C85.0799 2.66635 85.0818 2.66635 85.0837 2.66635L91.2835 2.68088C92.1624 2.6833 93.1604 3.21212 93.7817 3.9327H82.5511C83.1758 3.2034 84.1889 2.66635 85.0779 2.66635ZM71.5511 8.2993L72.8299 8.23683C72.4813 9.2102 70.3913 10.1879 67.496 10.1879C66.2263 10.1879 65.0065 9.98647 64.0366 9.63441L64.8341 9.32303C64.9038 9.29591 64.9818 9.27219 65.0559 9.24603C65.6651 9.60003 66.6161 9.76856 67.527 9.76856C69.017 9.76856 70.6179 9.32061 70.6446 8.33998C70.9729 8.32012 71.2833 8.3056 71.5511 8.2993ZM67.5275 7.8315C68.6451 7.8315 69.3385 8.08816 69.587 8.26347C69.5875 8.26443 69.5884 8.26492 69.5894 8.2654C69.6141 8.28332 69.6393 8.30075 69.6548 8.31577C69.4843 8.48671 68.7618 8.80003 67.5275 8.80003C66.2931 8.80003 65.5706 8.48671 65.4002 8.31577C65.5706 8.14579 66.2931 7.8315 67.5275 7.8315ZM71.8944 35.6791V19.5216C71.8944 17.6315 73.0067 15.9032 74.7282 15.1197C74.9713 15.0088 75.0793 14.7216 74.9684 14.478C74.8575 14.2344 74.5694 14.1269 74.3267 14.2383C72.261 15.1787 70.9264 17.2528 70.9264 19.5216V35.8355L70.4867 36.0122H61.7044C61.3054 36.0122 60.9805 35.6868 60.9805 35.2878V16.4538C60.9805 14.2872 61.5059 12.141 62.5015 10.2334L62.7766 10.1259C63.9678 10.7807 65.6651 11.1565 67.4965 11.1565C70.9056 11.1565 73.6013 9.87025 73.8333 8.18792L79.5856 7.9085L77.1063 13.4877C76.5974 14.1182 76.1412 14.7923 75.7441 15.5042C75.6298 15.4814 75.5127 15.4698 75.394 15.4698C74.4149 15.4698 73.6183 16.2664 73.6183 17.2456C73.6183 17.863 73.9345 18.4146 74.4342 18.7352C74.12 19.909 73.95 21.1415 73.95 22.4127C73.95 25.7589 75.1132 28.8369 77.053 31.2694V32.8887C77.053 34.1343 78.2564 35.1483 79.7353 35.1483H81.8349C82.2248 35.343 82.6243 35.5207 83.0334 35.68L71.8944 35.6791ZM104.41 34.3023C103.479 35.2161 102.486 35.6791 101.455 35.6791H93.3353C93.7444 35.5197 94.1444 35.343 94.5342 35.1469H96.6339C98.1133 35.1469 99.3157 34.1338 99.3157 32.8882V31.2698C101.256 28.8364 102.419 25.7584 102.419 22.4122C102.419 18.9051 101.142 15.6921 99.0309 13.2083H104.41V34.3023Z" fill="#DDBB60"/>
<path d="M70.7777 11.8809H63.7775C63.5407 11.8809 63.3387 12.0523 63.3 12.2852L63.0501 13.7855C63.0269 13.9259 63.0661 14.0697 63.1581 14.1787C63.2501 14.2872 63.3852 14.3501 63.5276 14.3501H71.0276C71.1699 14.3501 71.305 14.2872 71.397 14.1787C71.489 14.0697 71.5283 13.9264 71.505 13.7855L71.2552 12.2852C71.2164 12.0518 71.0145 11.8809 70.7777 11.8809ZM67.7618 12.8494H68.5434V13.3811H67.7618V12.8494ZM66.7933 13.3806H66.0118V12.8489H66.7933V13.3806ZM64.1876 12.8494H65.0433V13.3811H64.099L64.1876 12.8494ZM69.5119 13.3806V12.8489H70.3675L70.4562 13.3806H69.5119Z" fill="#DDBB60"/>
<path d="M77.6894 11.0364C77.6894 10.0572 76.8928 9.26062 75.9137 9.26062C74.9345 9.26062 74.1379 10.0572 74.1379 11.0364C74.1379 12.0156 74.9345 12.8127 75.9137 12.8127C76.8928 12.8127 77.6894 12.0161 77.6894 11.0364ZM75.1059 11.0364C75.1059 10.5914 75.4682 10.2291 75.9132 10.2291C76.3582 10.2291 76.7204 10.5914 76.7204 11.0364C76.7204 11.4819 76.3582 11.8442 75.9132 11.8442C75.4682 11.8442 75.1059 11.4819 75.1059 11.0364Z" fill="#DDBB60"/>
<path d="M88.1839 17.3928C85.4164 17.3928 83.1652 19.6442 83.1652 22.4127C83.1652 25.1803 85.4164 27.4311 88.1839 27.4311C90.9518 27.4311 93.2031 25.1803 93.2031 22.4127C93.2031 19.6451 90.9518 17.3928 88.1839 17.3928ZM88.1839 26.4631C85.951 26.4631 84.1336 24.6461 84.1336 22.4127C84.1336 20.1798 85.951 18.3618 88.1839 18.3618C90.4172 18.3618 92.2346 20.1793 92.2346 22.4127C92.235 24.6461 90.4182 26.4631 88.1839 26.4631Z" fill="#DDBB60"/>
</g>
</g>
</g>
</g>
</g>
</g>
<defs>
<clipPath id="clip0_29_773">
<rect width="166.66" height="76.5" fill="white"/>
</clipPath>
<clipPath id="clip1_29_773">
<rect width="166.66" height="76.5" fill="white" transform="translate(-0.10083 -0.00195312)"/>
</clipPath>
<clipPath id="clip2_29_773">
<rect width="166.242" height="76.496" fill="white" transform="translate(0.108032)"/>
</clipPath>
<clipPath id="clip3_29_773">
<rect width="166.242" height="76.496" fill="white" transform="translate(0.108032)"/>
</clipPath>
<clipPath id="clip4_29_773">
<rect width="166.242" height="36.9812" fill="white" transform="translate(0.108032 39.5148)"/>
</clipPath>
<clipPath id="clip5_29_773">
<rect width="166.242" height="36.9812" fill="white" transform="translate(0.108032 39.5148)"/>
</clipPath>
<clipPath id="clip6_29_773">
<rect width="166.242" height="36.9812" fill="white" transform="translate(0.108032 39.5148)"/>
</clipPath>
<clipPath id="clip7_29_773">
<rect width="166.242" height="36.9812" fill="white" transform="translate(0.108032 39.5148)"/>
</clipPath>
<clipPath id="clip8_29_773">
<rect width="48.4243" height="36.9812" fill="white" transform="translate(59.017)"/>
</clipPath>
<clipPath id="clip9_29_773">
<rect width="48.4243" height="36.9812" fill="white" transform="translate(59.017)"/>
</clipPath>
</defs>
</svg>
