<svg width="128" height="128" viewBox="0 0 128 128" fill="none" xmlns="http://www.w3.org/2000/svg">
<g clip-path="url(#clip0_28_745)">
<circle cx="64" cy="64" r="64" fill="#757575"/>
<g clip-path="url(#clip1_28_745)">
<g clip-path="url(#clip2_28_745)">
<g clip-path="url(#clip3_28_745)">
<g clip-path="url(#clip4_28_745)">
<g clip-path="url(#clip5_28_745)">
<g clip-path="url(#clip6_28_745)">
<g clip-path="url(#clip7_28_745)">
<g clip-path="url(#clip8_28_745)">
<path d="M71.1725 52.2363C61.358 52.2363 53.371 59.9845 53.371 69.5085C53.371 79.0318 61.3566 86.7813 71.1725 86.7813C80.9877 86.7813 88.974 79.0318 88.974 69.5085C88.974 59.9845 80.9877 52.2363 71.1725 52.2363ZM71.1725 85.4197C62.1305 85.4197 54.7729 78.2816 54.7729 69.5078C54.7729 60.7333 62.1298 53.5952 71.1725 53.5952C80.2152 53.5952 87.572 60.7333 87.572 69.5085C87.572 78.2816 80.2159 85.4197 71.1725 85.4197Z" fill="#DDBB60"/>
<path d="M71.1724 55.2214C63.0529 55.2214 56.4482 61.6304 56.4482 69.5078C56.4482 77.3851 63.0536 83.7948 71.1724 83.7948C79.2927 83.7948 85.898 77.3851 85.898 69.5078C85.898 61.6304 79.2927 55.2214 71.1724 55.2214ZM71.1724 82.4345C63.8268 82.4345 57.8502 76.6356 57.8502 69.5078C57.8502 62.3799 63.8268 56.581 71.1724 56.581C78.5181 56.581 84.4961 62.3792 84.4961 69.5084C84.4961 76.6356 78.5195 82.4345 71.1724 82.4345Z" fill="#DDBB60"/>
<path d="M98.3483 55.2215H96.0238C95.8422 53.6769 95.0403 52.1751 93.6867 50.8264L93.8676 49.0104C93.9005 48.6792 93.6811 48.3732 93.3516 48.2875L88.8492 47.1197C88.784 47.0768 88.7174 47.038 88.6375 47.0176C88.5576 46.9972 88.477 46.9972 88.3992 47.0034L86.0088 46.3837L86.0074 46.3831L83.561 45.7478C83.2238 45.6594 82.8817 45.8213 82.7408 46.1239L82.4492 46.7497L81.2057 43.972C80.5565 42.5212 79.0719 41.3058 77.4512 40.7556C77.4512 40.7488 77.4554 40.7427 77.4554 40.7365C77.4554 38.9403 75.3412 38.0303 71.1753 38.0303C67.0135 38.0303 64.9021 38.9383 64.8951 40.7284C63.2716 41.2711 61.7799 42.4763 61.1189 43.9196L59.3658 47.7467L47.048 48.3276C46.4494 48.3412 45.7 48.3806 44.9177 48.4405C44.0394 47.9168 42.6248 47.6699 41.2733 47.6699C39.0982 47.6699 36.7576 48.3085 36.7576 49.711C36.7576 49.7736 36.7674 49.8327 36.7765 49.8933L34.2698 50.8387L33.2428 51.227C33.0879 51.2862 32.9596 51.3957 32.8804 51.5378C32.3946 52.4125 31.9853 53.3259 31.639 54.2604L29.9657 53.449C29.6187 53.2804 29.1981 53.4178 29.025 53.7531C28.8519 54.0891 28.9921 54.4978 29.3383 54.6658L31.2044 55.5711C30.6744 57.3748 30.3912 59.2506 30.3912 61.1394V87.592C30.3912 88.9034 31.4904 89.9698 32.8412 89.9698H45.6888C45.7779 89.9698 45.8669 89.9542 45.9503 89.9208L47.0263 89.5026H90.3851C92.317 89.5026 94.2131 88.6238 95.8668 86.9616C95.9929 86.8337 96.063 86.6637 96.063 86.4889V56.5824H98.3483C98.7359 56.5824 99.0492 56.2777 99.0492 55.9023C99.0492 55.5255 98.7359 55.2215 98.3483 55.2215ZM71.1725 88.1409C60.5841 88.1409 51.9683 79.782 51.9683 69.5078C51.9683 59.2336 60.5834 50.8747 71.1725 50.8747C81.7615 50.8747 90.3773 59.2329 90.3773 69.5085C90.3773 79.782 81.7622 88.1409 71.1725 88.1409ZM85.8847 83.4881V84.2213C85.8847 85.2027 84.7491 86.0332 83.4046 86.0332H82.7562C83.8841 85.2871 84.9307 84.4328 85.8847 83.4881ZM56.4616 83.4881C57.4149 84.4321 58.4622 85.2871 59.5908 86.0332H58.9424C57.5979 86.0332 56.4616 85.2027 56.4616 84.2213V83.4881ZM51.4895 62.2514C51.4895 61.6896 51.9143 61.2244 52.4681 61.136C52.1898 61.7182 51.9402 62.316 51.7194 62.9281C51.5736 62.7377 51.4895 62.5024 51.4895 62.2514ZM61.086 47.3353C63.1055 48.4534 68.5157 48.5962 71.1346 48.5962C73.7542 48.5962 79.163 48.4527 81.1839 47.3353L84.1715 54.0081C80.6224 51.2012 76.0983 49.5151 71.1746 49.5151C66.1415 49.5151 61.5269 51.2774 57.9442 54.1958L61.086 47.3353ZM62.1949 44.914H80.0988L80.6231 46.0858C80.6147 46.1069 80.6007 46.1253 80.5937 46.1471C80.0252 46.5483 76.8441 47.2366 71.1346 47.2366C65.4251 47.2366 62.2433 46.5483 61.6755 46.1464C61.6706 46.1294 61.6587 46.1158 61.6524 46.0994L62.1949 44.914ZM87.5853 48.2004L87.3855 48.922L86.1245 48.5949L86.3222 47.8733L87.5853 48.2004ZM90.2007 48.8792L90.0023 49.6008L88.7398 49.2737L88.9389 48.552L90.2007 48.8792ZM83.6135 49.3505L85.0842 49.7328L92.5981 51.682C93.7554 52.8036 94.4241 53.9918 94.6064 55.2215H86.2422L83.6135 49.3505ZM92.3394 50.2068L91.3566 49.9518L91.555 49.2301L92.4151 49.4525L92.3394 50.2068ZM83.772 47.2108L84.9685 47.5209L84.7702 48.2426L83.4495 47.8998L83.772 47.2108ZM71.1725 39.3892C73.7899 39.3892 75.588 39.802 75.9721 40.4618C75.8691 40.455 75.7646 40.4359 75.6623 40.4352L66.6875 40.4148C66.684 40.4148 66.6805 40.4148 66.6763 40.4148C66.5803 40.4148 66.4829 40.4332 66.3847 40.4393C66.7976 39.7925 68.5858 39.3892 71.1725 39.3892ZM66.6763 41.7751C66.6791 41.7751 66.6819 41.7751 66.6847 41.7751L75.6595 41.7955C76.9318 41.7989 78.3765 42.5416 79.2758 43.5537H63.0186C63.9229 42.5294 65.3893 41.7751 66.6763 41.7751ZM47.095 49.6865L48.9463 49.5988C48.4416 50.9658 45.4161 52.339 41.225 52.339C39.387 52.339 37.6212 52.0561 36.2171 51.5617L37.3716 51.1243C37.4726 51.0862 37.5854 51.0529 37.6927 51.0162C38.5745 51.5134 39.9513 51.7501 41.2698 51.7501C43.4267 51.7501 45.7442 51.1209 45.7828 49.7436C46.258 49.7158 46.7074 49.6953 47.095 49.6865ZM41.2705 49.0295C42.8884 49.0295 43.8922 49.39 44.2518 49.6362C44.2525 49.6375 44.2539 49.6382 44.2553 49.6389C44.2911 49.6641 44.3275 49.6885 44.3499 49.7096C44.1032 49.9497 43.0573 50.3898 41.2705 50.3898C39.4837 50.3898 38.4378 49.9497 38.1911 49.7096C38.4378 49.4709 39.4837 49.0295 41.2705 49.0295ZM47.592 88.1409V65.4481C47.592 62.7935 49.2022 60.3661 51.6942 59.2656C52.0461 59.1098 52.2024 58.7065 52.0419 58.3644C51.8813 58.0223 51.4642 57.8713 51.1131 58.0277C48.1226 59.3486 46.1907 62.2616 46.1907 65.4481V88.3606L45.5542 88.6089H32.8412C32.2636 88.6089 31.7932 88.1518 31.7932 87.5914V61.1394C31.7932 58.0964 32.5538 55.0821 33.995 52.403L34.3931 52.252C36.1176 53.1715 38.5745 53.6993 41.2257 53.6993C46.1606 53.6993 50.063 51.8929 50.3987 49.5301L58.7258 49.1376L55.1367 56.9735C54.4 57.8591 53.7396 58.8058 53.1648 59.8056C52.9994 59.7737 52.8298 59.7573 52.658 59.7573C51.2406 59.7573 50.0875 60.8762 50.0875 62.2514C50.0875 63.1186 50.5453 63.8933 51.2687 64.3435C50.8137 65.9922 50.5677 67.7231 50.5677 69.5085C50.5677 74.2083 52.2515 78.5312 55.0596 81.9476V84.222C55.0596 85.9713 56.8015 87.3955 58.9424 87.3955H61.9818C62.5461 87.6689 63.1244 87.9185 63.7168 88.1423L47.592 88.1409ZM94.6618 86.2073C93.3138 87.4907 91.8761 88.1409 90.3837 88.1409H78.6295C79.2219 87.9172 79.8009 87.6689 80.3652 87.3934H83.4046C85.5462 87.3934 87.2867 85.9706 87.2867 84.2213V81.9482C90.0956 78.5305 91.7793 74.2076 91.7793 69.5078C91.7793 64.5822 89.9301 60.0695 86.8745 56.5811H94.6618V86.2073Z" fill="#DDBB60"/>
<path d="M45.9755 54.7168H35.842C35.4992 54.7168 35.2069 54.9576 35.1509 55.2847L34.7891 57.3918C34.7555 57.589 34.8123 57.791 34.9455 57.9441C35.0787 58.0964 35.2742 58.1848 35.4803 58.1848H46.3372C46.5433 58.1848 46.7388 58.0964 46.872 57.9441C47.0052 57.791 47.062 57.5897 47.0283 57.3918L46.6666 55.2847C46.6106 54.9569 46.3183 54.7168 45.9755 54.7168ZM41.6097 56.0771H42.7411V56.8239H41.6097V56.0771ZM40.2078 56.8232H39.0764V56.0764H40.2078V56.8232ZM36.4358 56.0771H37.6744V56.8239H36.3075L36.4358 56.0771ZM44.1431 56.8232V56.0764H45.3817L45.51 56.8232H44.1431Z" fill="#DDBB60"/>
<path d="M55.9808 53.5307C55.9808 52.1555 54.8276 51.0366 53.4102 51.0366C51.9928 51.0366 50.8397 52.1555 50.8397 53.5307C50.8397 54.9059 51.9928 56.0254 53.4102 56.0254C54.8276 56.0254 55.9808 54.9066 55.9808 53.5307ZM52.241 53.5307C52.241 52.9056 52.7653 52.3969 53.4095 52.3969C54.0537 52.3969 54.5781 52.9056 54.5781 53.5307C54.5781 54.1564 54.0537 54.6652 53.4095 54.6652C52.7653 54.6652 52.241 54.1564 52.241 53.5307Z" fill="#DDBB60"/>
<path d="M71.1725 62.4581C67.1664 62.4581 63.9075 65.6201 63.9075 69.5085C63.9075 73.3955 67.1664 76.5567 71.1725 76.5567C75.1793 76.5567 78.4382 73.3955 78.4382 69.5085C78.4382 65.6215 75.1793 62.4581 71.1725 62.4581ZM71.1725 75.1971C67.9402 75.1971 65.3094 72.6453 65.3094 69.5085C65.3094 66.3723 67.9402 63.8191 71.1725 63.8191C74.4054 63.8191 77.0362 66.3717 77.0362 69.5085C77.0369 72.6453 74.4068 75.1971 71.1725 75.1971Z" fill="#DDBB60"/>
</g>
</g>
</g>
</g>
</g>
</g>
</g>
</g>
</g>
<defs>
<clipPath id="clip0_28_745">
<rect width="128" height="128" fill="white"/>
</clipPath>
<clipPath id="clip1_28_745">
<rect width="70" height="52" fill="white" transform="translate(29 38)"/>
</clipPath>
<clipPath id="clip2_28_745">
<rect width="70.0984" height="51.9395" fill="white" transform="translate(28.9508 38.0303)"/>
</clipPath>
<clipPath id="clip3_28_745">
<rect width="70.0984" height="51.9395" fill="white" transform="translate(28.9508 38.0303)"/>
</clipPath>
<clipPath id="clip4_28_745">
<rect width="70.0984" height="51.9395" fill="white" transform="translate(28.9508 38.0303)"/>
</clipPath>
<clipPath id="clip5_28_745">
<rect width="70.0984" height="51.9395" fill="white" transform="translate(28.9508 38.0303)"/>
</clipPath>
<clipPath id="clip6_28_745">
<rect width="70.0984" height="51.9395" fill="white" transform="translate(28.9508 38.0303)"/>
</clipPath>
<clipPath id="clip7_28_745">
<rect width="70.0984" height="51.9395" fill="white" transform="translate(28.9508 38.0303)"/>
</clipPath>
<clipPath id="clip8_28_745">
<rect width="70.0984" height="51.9395" fill="white" transform="translate(28.9508 38.0303)"/>
</clipPath>
</defs>
</svg>
